<svg width="40" height="40" viewBox="0 0 40 40" fill="none" xmlns="http://www.w3.org/2000/svg">
<circle cx="20" cy="20" r="20" fill="#F77947" fill-opacity="0.2"/>
<mask id="path-2-inside-1" fill="white">
<path d="M39.5 20C39.7761 20 40.0007 20.2239 39.9938 20.5C39.9323 22.956 39.4189 25.3812 38.4776 27.6537C37.4725 30.0802 35.9993 32.285 34.1421 34.1421C32.285 35.9993 30.0802 37.4725 27.6537 38.4776C25.2272 39.4827 22.6264 40 20 40C17.3736 40 14.7728 39.4827 12.3463 38.4776C9.91982 37.4725 7.71503 35.9993 5.85786 34.1421C4.00069 32.285 2.5275 30.0802 1.52241 27.6537C0.581134 25.3812 0.0676608 22.956 0.00624937 20.5C-0.00065318 20.2239 0.223858 20 0.5 20C0.776142 20 0.999313 20.2239 1.00658 20.5C1.06777 22.8247 1.55527 25.1199 2.44629 27.271C3.40113 29.5762 4.80066 31.6707 6.56497 33.435C8.32928 35.1993 10.4238 36.5989 12.729 37.5537C15.0342 38.5085 17.5049 39 20 39C22.4951 39 24.9658 38.5086 27.271 37.5537C29.5762 36.5989 31.6707 35.1993 33.435 33.435C35.1993 31.6707 36.5989 29.5762 37.5537 27.271C38.4447 25.1199 38.9322 22.8247 38.9934 20.5C39.0007 20.2239 39.2239 20 39.5 20Z"/>
</mask>
<path d="M39.5 20C39.7761 20 40.0007 20.2239 39.9938 20.5C39.9323 22.956 39.4189 25.3812 38.4776 27.6537C37.4725 30.0802 35.9993 32.285 34.1421 34.1421C32.285 35.9993 30.0802 37.4725 27.6537 38.4776C25.2272 39.4827 22.6264 40 20 40C17.3736 40 14.7728 39.4827 12.3463 38.4776C9.91982 37.4725 7.71503 35.9993 5.85786 34.1421C4.00069 32.285 2.5275 30.0802 1.52241 27.6537C0.581134 25.3812 0.0676608 22.956 0.00624937 20.5C-0.00065318 20.2239 0.223858 20 0.5 20C0.776142 20 0.999313 20.2239 1.00658 20.5C1.06777 22.8247 1.55527 25.1199 2.44629 27.271C3.40113 29.5762 4.80066 31.6707 6.56497 33.435C8.32928 35.1993 10.4238 36.5989 12.729 37.5537C15.0342 38.5085 17.5049 39 20 39C22.4951 39 24.9658 38.5086 27.271 37.5537C29.5762 36.5989 31.6707 35.1993 33.435 33.435C35.1993 31.6707 36.5989 29.5762 37.5537 27.271C38.4447 25.1199 38.9322 22.8247 38.9934 20.5C39.0007 20.2239 39.2239 20 39.5 20Z" stroke="#F77947" stroke-width="2" mask="url(#path-2-inside-1)"/>
<path d="M30.4008 19.4642C30.3491 19.4642 30.296 19.4687 30.2444 19.476C30.2054 19.4397 30.1651 19.4057 30.1207 19.3759C29.9584 18.9314 29.5393 18.6145 29.0485 18.6145C28.6261 18.6145 28.2587 18.8485 28.0583 19.1983C27.3469 19.3141 26.8011 19.9468 26.8011 20.7115C26.8011 21.4164 27.2638 22.0077 27.8913 22.1885C28.0156 22.2822 28.1612 22.3468 28.3217 22.3735C28.4736 22.5599 28.6905 22.6843 28.9361 22.7133C28.8956 23.8745 28.6631 24.6287 28.4531 25.0907C28.2164 24.9984 27.9823 24.9218 27.7504 24.8533C26.5214 23.5142 26.318 20.3245 26.3308 18.2355C26.7878 18.1147 27.1914 17.8601 27.4984 17.5179C27.6534 17.5509 27.8134 17.5686 27.9781 17.5686C29.015 17.5686 29.8871 16.8735 30.1582 15.9249C31.2354 15.5067 31.9995 14.4604 31.9995 13.2357C31.9995 11.642 30.7073 10.3524 29.1157 10.3524C28.9817 10.3524 28.8493 10.362 28.719 10.3793C28.6223 10.2917 28.5204 10.2106 28.4092 10.1379C27.9991 9.04887 26.9452 8.27417 25.7128 8.27417C24.6509 8.27417 23.7238 8.84782 23.2223 9.70298C21.4311 9.98567 20.0615 11.5353 20.0615 13.4068C20.0615 15.1268 21.2206 16.5771 22.8013 17.0176C23.1131 17.2479 23.4814 17.4058 23.8809 17.4695C24.2653 17.9209 24.8111 18.2294 25.4312 18.3011C25.3092 21.721 24.4841 23.7254 23.8996 24.7332C20.2689 25.5827 17.9726 28.8766 17.971 28.8856C14.7974 32.0608 8.20766 30.7429 8.143 30.7285L8 31.4202C8.12554 31.4459 9.51659 31.7253 11.3298 31.7253C13.6138 31.7253 16.5691 31.2828 18.5123 29.3332C18.5399 29.2929 20.3696 26.5587 23.3318 25.5435C23.3221 25.5539 23.3125 25.5619 23.3125 25.5619C23.4741 25.5022 23.632 25.4489 23.7903 25.4022C25.0565 25.0598 26.5087 25.0485 28.1024 25.675C28.1008 25.6766 28.0944 25.683 28.0944 25.683C28.0994 25.6804 28.1041 25.6797 28.1105 25.6773C28.1161 25.6799 28.1211 25.6806 28.1258 25.683L28.1329 25.6707C29.1827 25.2856 30.0438 25.552 30.0438 25.552C29.3897 25.1539 29.2894 23.6392 29.2958 22.6869C29.477 22.6375 29.6382 22.5335 29.7611 22.3947C29.8225 22.4077 29.8855 22.4157 29.9518 22.4157C30.3635 22.4157 30.7109 22.129 30.8192 21.7423C31.2456 21.5719 31.5507 21.1448 31.5507 20.6433C31.5493 19.9918 31.0342 19.4642 30.4008 19.4642Z" fill="#F77947"/>
<path d="M15.7284 17.5162C16.5084 17.5162 17.1407 16.8839 17.1407 16.1039C17.1407 15.324 16.5084 14.6917 15.7284 14.6917C14.9484 14.6917 14.3161 15.324 14.3161 16.1039C14.3161 16.8839 14.9484 17.5162 15.7284 17.5162Z" fill="#F77947"/>
<path d="M13.873 16.3442C13.8826 16.3461 13.8918 16.3442 13.8999 16.3378C13.9084 16.3322 13.9133 16.322 13.9133 16.3133V15.8947C13.9133 15.885 13.9084 15.8755 13.8999 15.8685C13.8918 15.8635 13.8826 15.8616 13.873 15.8635L13.0973 16.0726C13.0681 16.0799 13.0681 16.1271 13.0973 16.1351L13.873 16.3442Z" fill="#F77947"/>
<path d="M17.5687 15.8945V16.3131C17.5687 16.3228 17.5739 16.332 17.5803 16.3377C17.5904 16.344 17.5994 16.3462 17.6095 16.344L18.3852 16.1347C18.4144 16.1267 18.4144 16.0795 18.3852 16.0722L17.6095 15.8631C17.5994 15.861 17.5904 15.8631 17.5803 15.8681C17.5739 15.8756 17.5687 15.8855 17.5687 15.8945Z" fill="#F77947"/>
<path d="M15.5202 17.875C15.5101 17.875 15.5008 17.88 15.4959 17.8885C15.4895 17.8969 15.4862 17.9066 15.4895 17.9168L15.6979 18.6924C15.7059 18.7212 15.7524 18.7212 15.7604 18.6924L15.9709 17.9168C15.9726 17.9066 15.9709 17.8969 15.9641 17.8885C15.9577 17.88 15.9475 17.875 15.9388 17.875H15.5202Z" fill="#F77947"/>
<path d="M15.5202 14.3334H15.9386C15.9483 14.3334 15.9575 14.3282 15.9639 14.3202C15.9707 14.3119 15.9724 14.3011 15.9707 14.2919L15.7602 13.5162C15.7522 13.4884 15.7057 13.4884 15.6977 13.5162L15.4893 14.2919C15.486 14.3011 15.4893 14.3119 15.4957 14.3202C15.5 14.3282 15.5101 14.3334 15.5202 14.3334Z" fill="#F77947"/>
<path d="M14.3022 17.1993C14.2921 17.2 14.2831 17.2069 14.2779 17.2149L13.878 17.911C13.8631 17.9367 13.8968 17.9707 13.9235 17.9559L14.618 17.5557C14.6281 17.5516 14.6345 17.5415 14.6345 17.5323C14.6362 17.5219 14.6328 17.5118 14.6265 17.5044L14.3308 17.21C14.3218 17.201 14.3119 17.1986 14.3022 17.1993Z" fill="#F77947"/>
<path d="M17.1285 14.9989C17.1365 15.0065 17.1457 15.0105 17.1575 15.0081C17.1672 15.0074 17.1749 14.9996 17.1813 14.9916L17.5799 14.2971C17.5964 14.2705 17.5624 14.2365 17.5343 14.2506L16.8399 14.6509C16.8318 14.6568 16.825 14.6657 16.8233 14.6747C16.8217 14.6839 16.825 14.6947 16.8335 14.703L17.1285 14.9989Z" fill="#F77947"/>
<path d="M16.9973 17.1993C16.986 17.1986 16.9768 17.201 16.9704 17.2085L16.6752 17.503C16.6668 17.5103 16.6651 17.5205 16.6651 17.5309C16.6668 17.5408 16.6731 17.55 16.6816 17.5542L17.3777 17.9544C17.4037 17.9703 17.4374 17.9363 17.4233 17.9096L17.0214 17.2135C17.0165 17.2071 17.0061 17.2003 16.9973 17.1993Z" fill="#F77947"/>
<path d="M14.1441 15.0091C14.1521 15.0108 14.163 15.0068 14.1693 14.9992L14.4629 14.7047C14.4714 14.6967 14.4747 14.6873 14.4747 14.6785C14.4747 14.6686 14.4679 14.6611 14.4598 14.6559L13.8173 14.3069C13.793 14.2944 13.7592 14.3284 13.7717 14.3524L14.1207 14.9957C14.1238 15.0035 14.134 15.0082 14.1441 15.0091Z" fill="#F77947"/>
</svg>
