<svg width="40" height="40" viewBox="0 0 40 40" fill="none" xmlns="http://www.w3.org/2000/svg">
<circle cx="20" cy="20" r="20" fill="#F77947" fill-opacity="0.2"/>
<path d="M39.5 20C39.7761 20 40.0007 20.2239 39.9938 20.5C39.8658 25.6231 37.7749 30.5094 34.1421 34.1421C30.3914 37.8929 25.3043 40 20 40C14.6957 40 9.60859 37.8929 5.85787 34.1421C2.22514 30.5094 0.134214 25.6231 0.00624268 20.5C-0.000652983 20.2239 0.223858 20 0.5 20C0.776142 20 0.999313 20.2239 1.00657 20.5C1.13432 25.3579 3.1198 29.9899 6.56497 33.435C10.1282 36.9982 14.9609 39 20 39C25.0391 39 29.8718 36.9982 33.435 33.435C36.8802 29.9899 38.8657 25.3579 38.9934 20.5C39.0007 20.2239 39.2239 20 39.5 20Z" fill="#F77947"/>
<rect x="8" y="24" width="24" height="2" rx="1" fill="#F77947"/>
<rect x="9" y="18" width="22" height="2" rx="1" fill="#F77947"/>
<rect x="8" y="12" width="24" height="2" rx="1" fill="#F77947"/>
</svg>
