<svg width="40" height="40" viewBox="0 0 40 40" fill="none" xmlns="http://www.w3.org/2000/svg">
<circle cx="20" cy="20" r="20" fill="#F77947" fill-opacity="0.2"/>
<path d="M39.5 20C39.7761 20 40.0007 19.7761 39.9938 19.5C39.8658 14.3769 37.7749 9.49059 34.1421 5.85786C30.3914 2.10714 25.3043 4.00466e-07 20 0C14.6957 -4.00466e-07 9.60859 2.10714 5.85787 5.85786C2.22514 9.49059 0.134214 14.3769 0.00624268 19.5C-0.000652983 19.7761 0.223858 20 0.5 20C0.776142 20 0.999313 19.7761 1.00657 19.5C1.13432 14.6421 3.1198 10.0101 6.56497 6.56497C10.1282 3.00178 14.9609 1 20 1C25.0391 1 29.8718 3.00178 33.435 6.56497C36.8802 10.0101 38.8657 14.6421 38.9934 19.5C39.0007 19.7761 39.2239 20 39.5 20Z" fill="#F77947"/>
<rect x="12.2218" y="9.80762" width="24" height="2" rx="1" transform="rotate(45 12.2218 9.80762)" fill="#F77947"/>
<rect x="10.8076" y="26.7781" width="24" height="2" rx="1" transform="rotate(-45 10.8076 26.7781)" fill="#F77947"/>
</svg>
