<svg width="40" height="40" viewBox="0 0 40 40" fill="none" xmlns="http://www.w3.org/2000/svg">
<circle cx="20" cy="20" r="20" fill="#FFDB93" fill-opacity="0.1"/>
<path d="M38.5 20C39.3284 20 40.0059 19.3275 39.9438 18.5014C39.785 16.3881 39.291 14.3102 38.4776 12.3463C37.4725 9.91982 35.9993 7.71504 34.1421 5.85786C32.285 4.00069 30.0802 2.5275 27.6537 1.52241C25.2272 0.517315 22.6264 -1.14805e-07 20 0C17.3736 1.14805e-07 14.7728 0.517316 12.3463 1.52241C9.91982 2.5275 7.71503 4.00069 5.85786 5.85787C4.00069 7.71504 2.5275 9.91982 1.52241 12.3463C0.708968 14.3102 0.21502 16.3881 0.0562232 18.5014C-0.00585085 19.3275 0.671573 20 1.5 20C2.32843 20 2.99313 19.3271 3.06613 18.5019C3.21821 16.7829 3.63142 15.0941 4.29405 13.4944C5.14838 11.4318 6.40059 9.55778 7.97918 7.97919C9.55778 6.40059 11.4318 5.14838 13.4944 4.29405C15.5569 3.43972 17.7675 3 20 3C22.2325 3 24.4431 3.43972 26.5056 4.29405C28.5682 5.14838 30.4422 6.40059 32.0208 7.97918C33.5994 9.55778 34.8516 11.4318 35.706 13.4944C36.3686 15.0941 36.7818 16.7829 36.9339 18.5019C37.0069 19.3271 37.6716 20 38.5 20Z" fill="#FFDB93"/>
<rect x="12.9289" y="10.1005" width="24" height="4" rx="2" transform="rotate(45 12.9289 10.1005)" fill="#FFDB93"/>
<rect x="10.1005" y="27.0711" width="24" height="4" rx="2" transform="rotate(-45 10.1005 27.0711)" fill="#FFDB93"/>
</svg>
