<svg width="40" height="40" viewBox="0 0 40 40" fill="none" xmlns="http://www.w3.org/2000/svg">
<path d="M40 20C40 31.0457 31.0457 40 20 40C8.9543 40 0 31.0457 0 20C0 8.9543 8.9543 0 20 0C31.0457 0 40 8.9543 40 20ZM3 20C3 29.3888 10.6112 37 20 37C29.3888 37 37 29.3888 37 20C37 10.6112 29.3888 3 20 3C10.6112 3 3 10.6112 3 20Z" fill="#FFDB93"/>
<path d="M28.6673 19.5535C28.6243 19.5535 28.58 19.5572 28.537 19.5633C28.5045 19.5331 28.4709 19.5047 28.4339 19.48C28.2986 19.1095 27.9494 18.8454 27.5404 18.8454C27.1884 18.8454 26.8822 19.0405 26.7153 19.3319C26.1224 19.4284 25.6676 19.9556 25.6676 20.593C25.6676 21.1803 26.0532 21.6731 26.576 21.8238C26.6797 21.9018 26.801 21.9557 26.9347 21.9779C27.0614 22.1333 27.2421 22.2369 27.4468 22.2611C27.413 23.2288 27.2193 23.8572 27.0443 24.2423C26.847 24.1654 26.652 24.1015 26.4587 24.0444C25.4345 22.9285 25.265 20.2705 25.2756 18.5296C25.6565 18.4289 25.9928 18.2167 26.2486 17.9316C26.3778 17.9591 26.5112 17.9739 26.6484 17.9739C27.5125 17.9739 28.2393 17.3946 28.4652 16.6041C29.3629 16.2556 29.9996 15.3837 29.9996 14.3631C29.9996 13.035 28.9228 11.9603 27.5964 11.9603C27.4847 11.9603 27.3744 11.9684 27.2659 11.9827C27.1852 11.9098 27.1003 11.8421 27.0077 11.7816C26.6659 10.8741 25.7877 10.2285 24.7606 10.2285C23.8757 10.2285 23.1031 10.7065 22.6853 11.4192C21.1925 11.6547 20.0512 12.9461 20.0512 14.5057C20.0512 15.939 21.0171 17.1476 22.3345 17.5147C22.5942 17.7066 22.9012 17.8382 23.2341 17.8913C23.5544 18.2675 24.0093 18.5245 24.526 18.5843C24.4244 21.4342 23.7367 23.1045 23.2496 23.9444C20.2241 24.6523 18.3105 27.3972 18.3092 27.4047C15.6645 30.0507 10.173 28.9525 10.1192 28.9405L10 29.5168C10.1046 29.5383 11.2638 29.7711 12.7748 29.7711C14.6781 29.7711 17.1409 29.4024 18.7603 27.7777C18.7833 27.7441 20.308 25.4656 22.7765 24.6196C22.7684 24.6283 22.7604 24.635 22.7604 24.635C22.8951 24.5852 23.0266 24.5408 23.1586 24.5018C24.2138 24.2165 25.4239 24.2071 26.752 24.7292C26.7507 24.7305 26.7454 24.7358 26.7454 24.7358C26.7495 24.7337 26.7534 24.7331 26.7587 24.7311C26.7634 24.7333 26.7676 24.7339 26.7715 24.7358L26.7774 24.7256C27.6523 24.4047 28.3698 24.6267 28.3698 24.6267C27.8247 24.295 27.7412 23.0327 27.7465 22.2391C27.8975 22.198 28.0318 22.1112 28.1342 21.9956C28.1854 22.0064 28.2379 22.0131 28.2931 22.0131C28.6363 22.0131 28.9257 21.7742 29.016 21.4519C29.3713 21.3099 29.6256 20.954 29.6256 20.5361C29.6244 19.9932 29.1951 19.5535 28.6673 19.5535Z" fill="#FFDB93"/>
<path d="M16.4403 17.9302C17.0903 17.9302 17.6172 17.4033 17.6172 16.7533C17.6172 16.1033 17.0903 15.5764 16.4403 15.5764C15.7903 15.5764 15.2634 16.1033 15.2634 16.7533C15.2634 17.4033 15.7903 17.9302 16.4403 17.9302Z" fill="#FFDB93"/>
<path d="M14.894 16.9535C14.9021 16.9551 14.9098 16.9535 14.9164 16.9482C14.9235 16.9435 14.9277 16.9351 14.9277 16.9278V16.5789C14.9277 16.5709 14.9235 16.563 14.9164 16.5571C14.9098 16.553 14.9021 16.5514 14.894 16.553L14.2477 16.7272C14.2233 16.7333 14.2233 16.7726 14.2477 16.7793L14.894 16.9535Z" fill="#FFDB93"/>
<path d="M17.9741 16.5787V16.9275C17.9741 16.9356 17.9784 16.9432 17.9837 16.948C17.9922 16.9533 17.9996 16.955 18.0081 16.9533L18.6544 16.7789C18.6788 16.7722 18.6788 16.7328 18.6544 16.7267L18.0081 16.5525C17.9996 16.5507 17.9922 16.5525 17.9837 16.5566C17.9784 16.5629 17.9741 16.5712 17.9741 16.5787Z" fill="#FFDB93"/>
<path d="M16.2668 18.2291C16.2584 18.2291 16.2507 18.2332 16.2466 18.2403C16.2413 18.2474 16.2385 18.2555 16.2413 18.2639L16.4149 18.9103C16.4216 18.9343 16.4603 18.9343 16.467 18.9103L16.6424 18.2639C16.6438 18.2555 16.6424 18.2474 16.6367 18.2403C16.6314 18.2332 16.6229 18.2291 16.6157 18.2291H16.2668Z" fill="#FFDB93"/>
<path d="M16.2668 15.2779H16.6155C16.6235 15.2779 16.6312 15.2736 16.6365 15.2669C16.6422 15.26 16.6436 15.2509 16.6422 15.2433L16.4668 14.5969C16.4601 14.5737 16.4214 14.5737 16.4147 14.5969L16.2411 15.2433C16.2383 15.2509 16.2411 15.26 16.2464 15.2669C16.2499 15.2736 16.2584 15.2779 16.2668 15.2779Z" fill="#FFDB93"/>
<path d="M15.2517 17.6661C15.2433 17.6667 15.2358 17.6724 15.2315 17.6791L14.8982 18.2592C14.8858 18.2806 14.9139 18.3089 14.9361 18.2966L15.5149 17.963C15.5233 17.9597 15.5286 17.9512 15.5286 17.9436C15.53 17.9349 15.5272 17.9265 15.5219 17.9204L15.2755 17.675C15.2681 17.6675 15.2598 17.6655 15.2517 17.6661Z" fill="#FFDB93"/>
<path d="M17.607 15.8324C17.6136 15.8387 17.6213 15.8421 17.6311 15.8401C17.6392 15.8395 17.6457 15.833 17.651 15.8264L17.9831 15.2476C17.9969 15.2254 17.9686 15.1971 17.9452 15.2089L17.3665 15.5424C17.3598 15.5473 17.3541 15.5548 17.3527 15.5623C17.3513 15.5699 17.3541 15.579 17.3612 15.5859L17.607 15.8324Z" fill="#FFDB93"/>
<path d="M17.4978 17.6661C17.4884 17.6655 17.4807 17.6675 17.4754 17.6738L17.2294 17.9192C17.2223 17.9253 17.2209 17.9337 17.2209 17.9424C17.2223 17.9506 17.2276 17.9583 17.2347 17.9619L17.8148 18.2954C17.8364 18.3085 17.8646 18.2802 17.8528 18.258L17.5179 17.6779C17.5137 17.6726 17.5051 17.6669 17.4978 17.6661Z" fill="#FFDB93"/>
<path d="M15.1202 15.8409C15.1269 15.8423 15.1359 15.8389 15.1412 15.8326L15.3858 15.5872C15.3929 15.5806 15.3957 15.5727 15.3957 15.5654C15.3957 15.5572 15.39 15.5509 15.3833 15.5465L14.8478 15.2557C14.8276 15.2453 14.7994 15.2736 14.8099 15.2937L15.1007 15.8297C15.1033 15.8362 15.1117 15.8401 15.1202 15.8409Z" fill="#FFDB93"/>
</svg>
