<svg width="17" height="17" viewBox="0 0 17 17" fill="none" xmlns="http://www.w3.org/2000/svg">
<g clip-path="url(#clip0)">
<path d="M16.7923 15.791L11.958 10.9566C12.8944 9.79995 13.4582 8.33017 13.4582 6.72936C13.4582 3.01914 10.4393 0.000244141 6.72908 0.000244141C3.01886 0.000244141 0 3.01911 0 6.72933C0 10.4395 3.0189 13.4584 6.72911 13.4584C8.32992 13.4584 9.79971 12.8946 10.9564 11.9582L15.7907 16.7925C15.9288 16.9307 16.1102 17.0001 16.2915 17.0001C16.4729 17.0001 16.6542 16.9307 16.7923 16.7925C17.0693 16.5156 17.0693 16.0679 16.7923 15.791ZM6.72911 12.0418C3.79946 12.0418 1.41666 9.65898 1.41666 6.72933C1.41666 3.79968 3.79946 1.41688 6.72911 1.41688C9.65876 1.41688 12.0416 3.79968 12.0416 6.72933C12.0416 9.65898 9.65873 12.0418 6.72911 12.0418Z" fill="#F77947" fill-opacity="0.5"/>
</g>
<defs>
<clipPath id="clip0">
<rect width="17" height="17" fill="white"/>
</clipPath>
</defs>
</svg>
