<svg width="50" height="50" viewBox="0 0 50 50" fill="none" xmlns="http://www.w3.org/2000/svg">
<g clip-path="url(#clip0)">
<circle cx="12.5" cy="18.5" r="10.5" transform="rotate(90 12.5 18.5)" fill="white"/>
<path fill-rule="evenodd" clip-rule="evenodd" d="M6.25 18C6.25 21.4518 9.04822 24.25 12.5 24.25C15.9518 24.25 18.75 21.4518 18.75 18C18.75 17.412 18.6688 16.8429 18.517 16.3034C18.1502 16.7299 17.6066 17 17 17C15.8954 17 15 16.1045 15 15C15 14.1124 15.5781 13.36 16.3782 13.0985C15.3126 12.2542 13.9652 11.75 12.5 11.75C9.04822 11.75 6.25 14.5482 6.25 18Z" fill="#1C1B21"/>
<path fill-rule="evenodd" clip-rule="evenodd" d="M25 18C25 11.0964 19.4036 5.5 12.5 5.5C5.59644 5.5 0 11.0964 0 18V43H6.25C16.6053 43 25 34.6053 25 24.25V18ZM12.5 8.00001C6.97718 8.00001 2.50002 12.4772 2.50002 18C2.50002 23.5229 6.97718 28 12.5 28C18.0229 28 22.5 23.5229 22.5 18C22.5 12.4772 18.0229 8.00001 12.5 8.00001Z" fill="white"/>
<path fill-rule="evenodd" clip-rule="evenodd" d="M25 5.5L0 5.5C0 9.48937 0.934423 13.2605 2.59634 16.6064C3.27442 11.7432 7.45007 7.99999 12.5 7.99999C18.0229 7.99999 22.5 12.4771 22.5 18C22.5 23.0499 18.7568 27.2256 13.8936 27.9037C17.2395 29.5656 21.0106 30.5 25 30.5L50 30.5C50 16.6929 38.8071 5.5 25 5.5Z" fill="#F77947"/>
</g>
<defs>
<clipPath id="clip0">
<rect width="50" height="50" fill="white"/>
</clipPath>
</defs>
</svg>
