<svg width="300" height="300" viewBox="0 0 300 300" fill="none" xmlns="http://www.w3.org/2000/svg">
<rect width="300" height="300" fill="#F7DDAA"/>
<path d="M59.9623 137.8V163H52.9783L43.4023 151.552V163H35.1223V137.8H42.1063L51.6823 149.248V137.8H59.9623ZM77.2679 163.576C74.5559 163.576 72.1199 163.012 69.9599 161.884C67.7999 160.756 66.1079 159.196 64.8839 157.204C63.6599 155.188 63.0479 152.92 63.0479 150.4C63.0479 147.88 63.6599 145.624 64.8839 143.632C66.1079 141.616 67.7999 140.044 69.9599 138.916C72.1199 137.788 74.5559 137.224 77.2679 137.224C79.9799 137.224 82.4159 137.788 84.5759 138.916C86.7359 140.044 88.4279 141.616 89.6519 143.632C90.8759 145.624 91.4879 147.88 91.4879 150.4C91.4879 152.92 90.8759 155.188 89.6519 157.204C88.4279 159.196 86.7359 160.756 84.5759 161.884C82.4159 163.012 79.9799 163.576 77.2679 163.576ZM77.2679 156.7C78.3239 156.7 79.2719 156.448 80.1119 155.944C80.9759 155.416 81.6599 154.684 82.1639 153.748C82.6679 152.788 82.9199 151.672 82.9199 150.4C82.9199 149.128 82.6679 148.024 82.1639 147.088C81.6599 146.128 80.9759 145.396 80.1119 144.892C79.2719 144.364 78.3239 144.1 77.2679 144.1C76.2119 144.1 75.2519 144.364 74.3879 144.892C73.5479 145.396 72.8759 146.128 72.3719 147.088C71.8679 148.024 71.6159 149.128 71.6159 150.4C71.6159 151.672 71.8679 152.788 72.3719 153.748C72.8759 154.684 73.5479 155.416 74.3879 155.944C75.2519 156.448 76.2119 156.7 77.2679 156.7ZM99.692 144.388H92.312V137.8H115.568V144.388H108.188V163H99.692V144.388ZM137.064 144.208V148.528H147.576V154.936H137.064V163H128.568V137.8H149.052V144.208H137.064ZM164.772 163.576C162.06 163.576 159.624 163.012 157.464 161.884C155.304 160.756 153.612 159.196 152.388 157.204C151.164 155.188 150.552 152.92 150.552 150.4C150.552 147.88 151.164 145.624 152.388 143.632C153.612 141.616 155.304 140.044 157.464 138.916C159.624 137.788 162.06 137.224 164.772 137.224C167.484 137.224 169.92 137.788 172.08 138.916C174.24 140.044 175.932 141.616 177.156 143.632C178.38 145.624 178.992 147.88 178.992 150.4C178.992 152.92 178.38 155.188 177.156 157.204C175.932 159.196 174.24 160.756 172.08 161.884C169.92 163.012 167.484 163.576 164.772 163.576ZM164.772 156.7C165.828 156.7 166.776 156.448 167.616 155.944C168.48 155.416 169.164 154.684 169.668 153.748C170.172 152.788 170.424 151.672 170.424 150.4C170.424 149.128 170.172 148.024 169.668 147.088C169.164 146.128 168.48 145.396 167.616 144.892C166.776 144.364 165.828 144.1 164.772 144.1C163.716 144.1 162.756 144.364 161.892 144.892C161.052 145.396 160.38 146.128 159.876 147.088C159.372 148.024 159.12 149.128 159.12 150.4C159.12 151.672 159.372 152.788 159.876 153.748C160.38 154.684 161.052 155.416 161.892 155.944C162.756 156.448 163.716 156.7 164.772 156.7ZM194.135 163.576C190.271 163.576 187.259 162.532 185.099 160.444C182.939 158.356 181.859 155.428 181.859 151.66V137.8H190.355V151.408C190.355 153.256 190.679 154.6 191.327 155.44C191.999 156.28 192.959 156.7 194.207 156.7C195.455 156.7 196.403 156.28 197.051 155.44C197.723 154.6 198.059 153.256 198.059 151.408V137.8H206.411V151.66C206.411 155.428 205.331 158.356 203.171 160.444C201.011 162.532 197.999 163.576 194.135 163.576ZM235.146 137.8V163H228.162L218.586 151.552V163H210.306V137.8H217.29L226.866 149.248V137.8H235.146ZM239.24 137.8H251.66C254.468 137.8 256.94 138.316 259.076 139.348C261.236 140.356 262.904 141.808 264.08 143.704C265.28 145.6 265.88 147.832 265.88 150.4C265.88 152.968 265.28 155.2 264.08 157.096C262.904 158.992 261.236 160.456 259.076 161.488C256.94 162.496 254.468 163 251.66 163H239.24V137.8ZM251.3 156.376C253.124 156.376 254.576 155.86 255.656 154.828C256.76 153.772 257.312 152.296 257.312 150.4C257.312 148.504 256.76 147.04 255.656 146.008C254.576 144.952 253.124 144.424 251.3 144.424H247.736V156.376H251.3Z" fill="white" fill-opacity="0.4"/>
</svg>
