<svg width="400" height="400" viewBox="0 0 400 400" fill="none" xmlns="http://www.w3.org/2000/svg">
<rect width="400" height="400" rx="5" fill="#F7DDAA"/>
<g clip-path="url(#clip0)">
<path d="M266.416 196.579C266.086 196.579 265.747 196.607 265.417 196.654C265.169 196.422 264.911 196.205 264.628 196.015C263.591 193.176 260.915 191.153 257.781 191.153C255.083 191.153 252.737 192.647 251.458 194.881C246.915 195.62 243.43 199.66 243.43 204.544C243.43 209.045 246.384 212.821 250.391 213.975C251.185 214.574 252.115 214.986 253.14 215.157C254.11 216.347 255.495 217.141 257.063 217.327C256.804 224.742 255.32 229.558 253.979 232.508C252.468 231.919 250.973 231.429 249.492 230.992C241.644 222.441 240.345 202.073 240.426 188.733C243.345 187.961 245.922 186.335 247.882 184.15C248.872 184.361 249.894 184.474 250.946 184.474C257.567 184.474 263.136 180.035 264.867 173.978C271.746 171.307 276.625 164.626 276.625 156.806C276.625 146.628 268.374 138.393 258.21 138.393C257.354 138.393 256.509 138.455 255.677 138.565C255.059 138.006 254.408 137.488 253.699 137.024C251.08 130.07 244.35 125.123 236.48 125.123C229.699 125.123 223.779 128.786 220.577 134.247C209.138 136.052 200.393 145.947 200.393 157.898C200.393 168.881 207.794 178.143 217.889 180.956C219.879 182.426 222.231 183.435 224.782 183.841C227.237 186.724 230.722 188.693 234.682 189.152C233.903 210.99 228.634 223.789 224.901 230.225C201.717 235.65 187.054 256.684 187.043 256.741C166.778 277.017 124.698 268.601 124.285 268.51L123.372 272.926C124.173 273.09 133.056 274.874 144.635 274.874C159.219 274.874 178.091 272.049 190.5 259.6C190.676 259.342 202.36 241.882 221.276 235.4C221.214 235.466 221.152 235.517 221.152 235.517C222.185 235.136 223.193 234.795 224.204 234.497C232.289 232.311 241.563 232.238 251.74 236.239C251.729 236.249 251.689 236.29 251.689 236.29C251.72 236.274 251.75 236.269 251.791 236.254C251.827 236.271 251.859 236.275 251.889 236.29L251.934 236.212C258.638 233.753 264.137 235.454 264.137 235.454C259.96 232.912 259.319 223.239 259.36 217.158C260.517 216.843 261.546 216.178 262.331 215.292C262.723 215.375 263.126 215.426 263.549 215.426C266.178 215.426 268.396 213.596 269.088 211.126C271.811 210.038 273.759 207.311 273.759 204.108C273.75 199.948 270.461 196.579 266.416 196.579Z" fill="#6A543F"/>
<path d="M172.722 184.14C177.703 184.14 181.741 180.102 181.741 175.121C181.741 170.141 177.703 166.103 172.722 166.103C167.742 166.103 163.704 170.141 163.704 175.121C163.704 180.102 167.742 184.14 172.722 184.14Z" fill="#6A543F"/>
<path d="M160.874 176.655C160.936 176.667 160.995 176.655 161.046 176.615C161.1 176.578 161.132 176.514 161.132 176.458V173.785C161.132 173.723 161.1 173.663 161.046 173.617C160.995 173.586 160.936 173.574 160.874 173.586L155.921 174.921C155.734 174.968 155.734 175.269 155.921 175.32L160.874 176.655Z" fill="#6A543F"/>
<path d="M184.476 173.783V176.456C184.476 176.518 184.509 176.577 184.55 176.613C184.614 176.654 184.672 176.667 184.736 176.654L189.689 175.317C189.876 175.266 189.876 174.965 189.689 174.918L184.736 173.583C184.672 173.569 184.614 173.583 184.55 173.614C184.509 173.663 184.476 173.726 184.476 173.783Z" fill="#6A543F"/>
<path d="M171.393 186.43C171.328 186.43 171.27 186.462 171.238 186.516C171.197 186.57 171.176 186.632 171.197 186.697L172.528 191.65C172.579 191.834 172.876 191.834 172.927 191.65L174.271 186.697C174.282 186.632 174.271 186.57 174.228 186.516C174.187 186.462 174.122 186.43 174.066 186.43H171.393Z" fill="#6A543F"/>
<path d="M171.393 163.815H174.065C174.127 163.815 174.185 163.782 174.226 163.731C174.27 163.678 174.28 163.609 174.27 163.55L172.926 158.597C172.875 158.419 172.578 158.419 172.526 158.597L171.196 163.55C171.175 163.609 171.196 163.678 171.237 163.731C171.264 163.782 171.328 163.815 171.393 163.815Z" fill="#6A543F"/>
<path d="M163.615 182.116C163.55 182.121 163.493 182.164 163.46 182.216L160.906 186.661C160.811 186.825 161.026 187.042 161.196 186.947L165.631 184.391C165.696 184.366 165.737 184.301 165.737 184.242C165.747 184.176 165.726 184.111 165.685 184.064L163.797 182.184C163.74 182.127 163.677 182.112 163.615 182.116Z" fill="#6A543F"/>
<path d="M181.662 168.065C181.714 168.113 181.772 168.139 181.848 168.124C181.91 168.119 181.959 168.069 182 168.018L184.545 163.583C184.651 163.413 184.434 163.196 184.254 163.287L179.82 165.842C179.768 165.88 179.725 165.937 179.714 165.994C179.704 166.053 179.725 166.122 179.779 166.175L181.662 168.065Z" fill="#6A543F"/>
<path d="M180.826 182.116C180.754 182.112 180.695 182.127 180.654 182.175L178.769 184.055C178.715 184.102 178.705 184.167 178.705 184.233C178.715 184.297 178.756 184.355 178.81 184.382L183.255 186.938C183.421 187.039 183.636 186.822 183.546 186.652L180.98 182.207C180.948 182.166 180.882 182.122 180.826 182.116Z" fill="#6A543F"/>
<path d="M162.607 168.13C162.658 168.14 162.727 168.115 162.768 168.066L164.643 166.186C164.697 166.135 164.718 166.074 164.718 166.019C164.718 165.955 164.674 165.907 164.623 165.874L160.52 163.645C160.365 163.565 160.149 163.782 160.229 163.936L162.458 168.044C162.477 168.093 162.542 168.124 162.607 168.13Z" fill="#6A543F"/>
</g>
<defs>
<clipPath id="clip0">
<rect width="153.257" height="153.257" fill="white" transform="translate(123.372 123.372)"/>
</clipPath>
</defs>
</svg>
